<mxfile host="app.diagrams.net" modified="2023-03-20T03:03:27.214Z" agent="5.0 (Windows)" etag="6sWd6wCGNVEDHwg3zGbw" version="21.0.6" type="github">
  <diagram name="第 1 页" id="Y8PNDL50BQj4xOIG8hcO">
    <mxGraphModel dx="1509" dy="1963" grid="1" gridSize="10" guides="1" tooltips="1" connect="1" arrows="1" fold="1" page="1" pageScale="1" pageWidth="827" pageHeight="1169" math="0" shadow="0">
      <root>
        <mxCell id="0" />
        <mxCell id="1" parent="0" />
        <mxCell id="8H6UXR6yjuKnyTyYUlck-5" style="edgeStyle=orthogonalEdgeStyle;rounded=0;orthogonalLoop=1;jettySize=auto;html=1;exitX=1;exitY=0.5;exitDx=0;exitDy=0;entryX=0;entryY=0.5;entryDx=0;entryDy=0;sketch=1;curveFitting=1;jiggle=2;" parent="1" source="8H6UXR6yjuKnyTyYUlck-1" target="8H6UXR6yjuKnyTyYUlck-2" edge="1">
          <mxGeometry relative="1" as="geometry" />
        </mxCell>
        <mxCell id="8H6UXR6yjuKnyTyYUlck-1" value="线程访问同步代码块" style="rounded=1;whiteSpace=wrap;html=1;sketch=1;curveFitting=1;jiggle=2;" parent="1" vertex="1">
          <mxGeometry x="20" y="20" width="120" height="60" as="geometry" />
        </mxCell>
        <mxCell id="8H6UXR6yjuKnyTyYUlck-6" value="01(标志位)" style="edgeStyle=orthogonalEdgeStyle;rounded=0;orthogonalLoop=1;jettySize=auto;html=1;exitX=0.5;exitY=1;exitDx=0;exitDy=0;entryX=0.5;entryY=0;entryDx=0;entryDy=0;sketch=1;curveFitting=1;jiggle=2;" parent="1" source="8H6UXR6yjuKnyTyYUlck-2" target="8H6UXR6yjuKnyTyYUlck-3" edge="1">
          <mxGeometry relative="1" as="geometry">
            <mxPoint as="offset" />
          </mxGeometry>
        </mxCell>
        <mxCell id="0Wx5KNQBChf4VUPkPu8S-46" style="edgeStyle=orthogonalEdgeStyle;rounded=0;orthogonalLoop=1;jettySize=auto;html=1;exitX=1;exitY=0.5;exitDx=0;exitDy=0;entryX=0;entryY=0.5;entryDx=0;entryDy=0;sketch=1;curveFitting=1;jiggle=2;" parent="1" source="8H6UXR6yjuKnyTyYUlck-2" target="0Wx5KNQBChf4VUPkPu8S-50" edge="1">
          <mxGeometry relative="1" as="geometry">
            <mxPoint x="480" y="-250" as="targetPoint" />
          </mxGeometry>
        </mxCell>
        <mxCell id="0Wx5KNQBChf4VUPkPu8S-47" value="00(已加轻量级锁)" style="edgeLabel;html=1;align=center;verticalAlign=middle;resizable=0;points=[];" parent="0Wx5KNQBChf4VUPkPu8S-46" vertex="1" connectable="0">
          <mxGeometry x="-0.1601" y="-1" relative="1" as="geometry">
            <mxPoint y="1" as="offset" />
          </mxGeometry>
        </mxCell>
        <mxCell id="8H6UXR6yjuKnyTyYUlck-2" value="目前对象锁状态？" style="rhombus;whiteSpace=wrap;html=1;sketch=1;curveFitting=1;jiggle=2;" parent="1" vertex="1">
          <mxGeometry x="170" y="20" width="170" height="60" as="geometry" />
        </mxCell>
        <mxCell id="8H6UXR6yjuKnyTyYUlck-7" value="1(是)" style="edgeStyle=orthogonalEdgeStyle;rounded=0;orthogonalLoop=1;jettySize=auto;html=1;exitX=0.5;exitY=1;exitDx=0;exitDy=0;sketch=1;curveFitting=1;jiggle=2;" parent="1" source="8H6UXR6yjuKnyTyYUlck-3" target="8H6UXR6yjuKnyTyYUlck-4" edge="1">
          <mxGeometry relative="1" as="geometry" />
        </mxCell>
        <mxCell id="0Wx5KNQBChf4VUPkPu8S-2" style="edgeStyle=orthogonalEdgeStyle;rounded=1;orthogonalLoop=1;jettySize=auto;html=1;exitX=1;exitY=0.5;exitDx=0;exitDy=0;entryX=0.5;entryY=0;entryDx=0;entryDy=0;shadow=0;sketch=1;curveFitting=1;jiggle=2;" parent="1" source="8H6UXR6yjuKnyTyYUlck-3" target="-JZo-2B2mDlL2h-WQSQG-21" edge="1">
          <mxGeometry relative="1" as="geometry" />
        </mxCell>
        <mxCell id="0Wx5KNQBChf4VUPkPu8S-3" value="&lt;div&gt;0(不是)&lt;/div&gt;" style="edgeLabel;html=1;align=center;verticalAlign=middle;resizable=0;points=[];" parent="0Wx5KNQBChf4VUPkPu8S-2" vertex="1" connectable="0">
          <mxGeometry x="-0.4452" y="-8" relative="1" as="geometry">
            <mxPoint x="-528" y="-8" as="offset" />
          </mxGeometry>
        </mxCell>
        <mxCell id="8H6UXR6yjuKnyTyYUlck-3" value="是否偏向锁？" style="rhombus;whiteSpace=wrap;html=1;sketch=1;curveFitting=1;jiggle=2;" parent="1" vertex="1">
          <mxGeometry x="170" y="120" width="170" height="60" as="geometry" />
        </mxCell>
        <mxCell id="8H6UXR6yjuKnyTyYUlck-48" value="是" style="edgeStyle=orthogonalEdgeStyle;rounded=0;orthogonalLoop=1;jettySize=auto;html=1;exitX=0.5;exitY=1;exitDx=0;exitDy=0;entryX=0.5;entryY=0;entryDx=0;entryDy=0;sketch=1;curveFitting=1;jiggle=2;" parent="1" source="8H6UXR6yjuKnyTyYUlck-4" target="8H6UXR6yjuKnyTyYUlck-19" edge="1">
          <mxGeometry relative="1" as="geometry" />
        </mxCell>
        <mxCell id="8H6UXR6yjuKnyTyYUlck-51" value="否" style="edgeStyle=orthogonalEdgeStyle;rounded=0;orthogonalLoop=1;jettySize=auto;html=1;exitX=1;exitY=0.5;exitDx=0;exitDy=0;entryX=0;entryY=0.5;entryDx=0;entryDy=0;sketch=1;curveFitting=1;jiggle=2;" parent="1" source="8H6UXR6yjuKnyTyYUlck-4" target="8H6UXR6yjuKnyTyYUlck-13" edge="1">
          <mxGeometry relative="1" as="geometry" />
        </mxCell>
        <mxCell id="8H6UXR6yjuKnyTyYUlck-4" value="&lt;div&gt;检查对象头MarkWord&lt;/div&gt;&lt;div&gt;中记录的当前线程ID&lt;/div&gt;&lt;div&gt;是否是null&lt;br&gt;&lt;/div&gt;" style="rhombus;whiteSpace=wrap;html=1;sketch=1;curveFitting=1;jiggle=2;" parent="1" vertex="1">
          <mxGeometry x="155" y="260" width="200" height="90" as="geometry" />
        </mxCell>
        <mxCell id="8H6UXR6yjuKnyTyYUlck-12" style="edgeStyle=orthogonalEdgeStyle;rounded=0;orthogonalLoop=1;jettySize=auto;html=1;exitX=0.5;exitY=1;exitDx=0;exitDy=0;entryX=0.5;entryY=0;entryDx=0;entryDy=0;sketch=1;curveFitting=1;jiggle=2;" parent="1" source="8H6UXR6yjuKnyTyYUlck-8" target="8H6UXR6yjuKnyTyYUlck-11" edge="1">
          <mxGeometry relative="1" as="geometry" />
        </mxCell>
        <mxCell id="8H6UXR6yjuKnyTyYUlck-8" value="&lt;div&gt;获得偏向锁&lt;/div&gt;&lt;div&gt;ThreadID | epoch | age | (是否偏向锁)1 | (标志位)01&lt;br&gt;&lt;/div&gt;" style="rounded=1;whiteSpace=wrap;html=1;sketch=1;curveFitting=1;jiggle=2;" parent="1" vertex="1">
          <mxGeometry x="107.5" y="627" width="295" height="60" as="geometry" />
        </mxCell>
        <mxCell id="8H6UXR6yjuKnyTyYUlck-11" value="执行同步代码块" style="rounded=0;whiteSpace=wrap;html=1;sketch=1;curveFitting=1;jiggle=2;" parent="1" vertex="1">
          <mxGeometry x="195" y="708" width="120" height="60" as="geometry" />
        </mxCell>
        <mxCell id="8H6UXR6yjuKnyTyYUlck-52" value="是" style="edgeStyle=orthogonalEdgeStyle;rounded=0;orthogonalLoop=1;jettySize=auto;html=1;exitX=0.5;exitY=1;exitDx=0;exitDy=0;entryX=1;entryY=0.5;entryDx=0;entryDy=0;sketch=1;curveFitting=1;jiggle=2;" parent="1" source="8H6UXR6yjuKnyTyYUlck-13" target="8H6UXR6yjuKnyTyYUlck-8" edge="1">
          <mxGeometry x="-0.8626" y="3" relative="1" as="geometry">
            <mxPoint as="offset" />
          </mxGeometry>
        </mxCell>
        <mxCell id="8H6UXR6yjuKnyTyYUlck-54" value="否" style="edgeStyle=orthogonalEdgeStyle;rounded=0;orthogonalLoop=1;jettySize=auto;html=1;exitX=1;exitY=0.5;exitDx=0;exitDy=0;entryX=0;entryY=0.5;entryDx=0;entryDy=0;sketch=1;curveFitting=1;jiggle=2;" parent="1" source="8H6UXR6yjuKnyTyYUlck-13" target="8H6UXR6yjuKnyTyYUlck-53" edge="1">
          <mxGeometry relative="1" as="geometry" />
        </mxCell>
        <mxCell id="8H6UXR6yjuKnyTyYUlck-13" value="&lt;div&gt;检查对象头MarkWord中&lt;/div&gt;&lt;div&gt;记录的是否是当前线程&lt;br&gt;&lt;/div&gt;" style="rhombus;whiteSpace=wrap;html=1;sketch=1;curveFitting=1;jiggle=2;" parent="1" vertex="1">
          <mxGeometry x="402.5" y="265" width="170" height="80" as="geometry" />
        </mxCell>
        <mxCell id="8H6UXR6yjuKnyTyYUlck-50" value="成功" style="edgeStyle=orthogonalEdgeStyle;rounded=0;orthogonalLoop=1;jettySize=auto;html=1;exitX=0.5;exitY=1;exitDx=0;exitDy=0;entryX=0.5;entryY=0;entryDx=0;entryDy=0;sketch=1;curveFitting=1;jiggle=2;" parent="1" source="8H6UXR6yjuKnyTyYUlck-18" target="8H6UXR6yjuKnyTyYUlck-8" edge="1">
          <mxGeometry relative="1" as="geometry" />
        </mxCell>
        <mxCell id="8H6UXR6yjuKnyTyYUlck-56" value="失败" style="edgeStyle=orthogonalEdgeStyle;rounded=0;orthogonalLoop=1;jettySize=auto;html=1;exitX=1;exitY=0.5;exitDx=0;exitDy=0;entryX=0.5;entryY=1;entryDx=0;entryDy=0;sketch=1;curveFitting=1;jiggle=2;" parent="1" source="8H6UXR6yjuKnyTyYUlck-18" target="8H6UXR6yjuKnyTyYUlck-25" edge="1">
          <mxGeometry x="-0.8876" relative="1" as="geometry">
            <mxPoint as="offset" />
          </mxGeometry>
        </mxCell>
        <mxCell id="8H6UXR6yjuKnyTyYUlck-18" value="&lt;div&gt;将线程ID以CAS方式&lt;/div&gt;&lt;div&gt;写入MarkWord&lt;/div&gt;" style="rhombus;whiteSpace=wrap;html=1;sketch=1;curveFitting=1;jiggle=2;" parent="1" vertex="1">
          <mxGeometry x="170" y="474" width="170" height="80" as="geometry" />
        </mxCell>
        <mxCell id="8H6UXR6yjuKnyTyYUlck-49" style="edgeStyle=orthogonalEdgeStyle;rounded=0;orthogonalLoop=1;jettySize=auto;html=1;exitX=0.5;exitY=1;exitDx=0;exitDy=0;sketch=1;curveFitting=1;jiggle=2;" parent="1" source="8H6UXR6yjuKnyTyYUlck-19" target="8H6UXR6yjuKnyTyYUlck-18" edge="1">
          <mxGeometry relative="1" as="geometry" />
        </mxCell>
        <mxCell id="8H6UXR6yjuKnyTyYUlck-19" value="对象为匿名偏向状态，可以加偏向锁" style="rounded=1;whiteSpace=wrap;html=1;sketch=1;curveFitting=1;jiggle=2;" parent="1" vertex="1">
          <mxGeometry x="195" y="390" width="120" height="60" as="geometry" />
        </mxCell>
        <mxCell id="6eZ106JahWfcC5_vLtNl-2" style="edgeStyle=orthogonalEdgeStyle;rounded=0;orthogonalLoop=1;jettySize=auto;html=1;exitX=1;exitY=0.5;exitDx=0;exitDy=0;entryX=0;entryY=0.5;entryDx=0;entryDy=0;sketch=1;curveFitting=1;jiggle=2;" parent="1" target="8H6UXR6yjuKnyTyYUlck-29" edge="1">
          <mxGeometry relative="1" as="geometry">
            <mxPoint x="845" y="420" as="sourcePoint" />
          </mxGeometry>
        </mxCell>
        <mxCell id="8H6UXR6yjuKnyTyYUlck-25" value="&lt;div&gt;对象已经偏向其他线程&lt;/div&gt;&lt;div&gt;每个对象只能偏向一次&lt;/div&gt;&lt;div&gt;出现竞争&lt;br&gt;&lt;/div&gt;" style="rounded=1;whiteSpace=wrap;html=1;sketch=1;curveFitting=1;jiggle=2;" parent="1" vertex="1">
          <mxGeometry x="720" y="389" width="130" height="60" as="geometry" />
        </mxCell>
        <mxCell id="8H6UXR6yjuKnyTyYUlck-32" value="原持有偏向锁的线程到达safe point" style="edgeStyle=orthogonalEdgeStyle;rounded=0;orthogonalLoop=1;jettySize=auto;html=1;exitX=0.5;exitY=1;exitDx=0;exitDy=0;entryX=0.5;entryY=0;entryDx=0;entryDy=0;sketch=1;curveFitting=1;jiggle=2;" parent="1" source="8H6UXR6yjuKnyTyYUlck-29" target="8H6UXR6yjuKnyTyYUlck-31" edge="1">
          <mxGeometry relative="1" as="geometry" />
        </mxCell>
        <mxCell id="8H6UXR6yjuKnyTyYUlck-29" value="开始偏向锁撤销" style="rounded=1;whiteSpace=wrap;html=1;sketch=1;curveFitting=1;jiggle=2;" parent="1" vertex="1">
          <mxGeometry x="919" y="280" width="130" height="60" as="geometry" />
        </mxCell>
        <mxCell id="6eZ106JahWfcC5_vLtNl-40" style="edgeStyle=orthogonalEdgeStyle;rounded=0;sketch=1;hachureGap=4;jiggle=2;curveFitting=1;orthogonalLoop=1;jettySize=auto;html=1;exitX=0.5;exitY=1;exitDx=0;exitDy=0;entryX=0;entryY=0.5;entryDx=0;entryDy=0;fontFamily=Architects Daughter;fontSource=https%3A%2F%2Ffonts.googleapis.com%2Fcss%3Ffamily%3DArchitects%2BDaughter;fontSize=16;" parent="1" source="8H6UXR6yjuKnyTyYUlck-31" target="8H6UXR6yjuKnyTyYUlck-40" edge="1">
          <mxGeometry relative="1" as="geometry" />
        </mxCell>
        <mxCell id="8H6UXR6yjuKnyTyYUlck-31" value="&lt;div&gt;暂停原持有偏向锁线程&lt;/div&gt;&lt;div&gt;stop the world&lt;br&gt;&lt;/div&gt;" style="rounded=1;whiteSpace=wrap;html=1;sketch=1;curveFitting=1;jiggle=2;" parent="1" vertex="1">
          <mxGeometry x="919" y="390" width="130" height="60" as="geometry" />
        </mxCell>
        <mxCell id="0Wx5KNQBChf4VUPkPu8S-41" style="edgeStyle=orthogonalEdgeStyle;rounded=0;orthogonalLoop=1;jettySize=auto;html=1;exitX=1;exitY=0.5;exitDx=0;exitDy=0;entryX=0;entryY=0.5;entryDx=0;entryDy=0;sketch=1;curveFitting=1;jiggle=2;" parent="1" source="8H6UXR6yjuKnyTyYUlck-33" target="6eZ106JahWfcC5_vLtNl-41" edge="1">
          <mxGeometry relative="1" as="geometry" />
        </mxCell>
        <mxCell id="8H6UXR6yjuKnyTyYUlck-33" value="升级为轻量级锁" style="rounded=1;whiteSpace=wrap;html=1;sketch=1;curveFitting=1;jiggle=2;" parent="1" vertex="1">
          <mxGeometry x="1338" y="530" width="130" height="60" as="geometry" />
        </mxCell>
        <mxCell id="6eZ106JahWfcC5_vLtNl-21" value="BiasedLockingBulkRebiasThreshold = 20&lt;div&gt;大于20&lt;br&gt;&lt;/div&gt;" style="edgeStyle=orthogonalEdgeStyle;rounded=0;orthogonalLoop=1;jettySize=auto;html=1;exitX=0.5;exitY=0;exitDx=0;exitDy=0;entryX=0.5;entryY=1;entryDx=0;entryDy=0;sketch=1;curveFitting=1;jiggle=2;" parent="1" source="8H6UXR6yjuKnyTyYUlck-40" target="6eZ106JahWfcC5_vLtNl-20" edge="1">
          <mxGeometry relative="1" as="geometry" />
        </mxCell>
        <mxCell id="6eZ106JahWfcC5_vLtNl-26" value="小于20" style="edgeStyle=orthogonalEdgeStyle;rounded=0;orthogonalLoop=1;jettySize=auto;html=1;exitX=1;exitY=0.5;exitDx=0;exitDy=0;entryX=0.5;entryY=1;entryDx=0;entryDy=0;sketch=1;curveFitting=1;jiggle=2;" parent="1" source="8H6UXR6yjuKnyTyYUlck-40" target="8H6UXR6yjuKnyTyYUlck-33" edge="1">
          <mxGeometry relative="1" as="geometry" />
        </mxCell>
        <mxCell id="8H6UXR6yjuKnyTyYUlck-40" value="&lt;div&gt;Class类对象撤销计数器&lt;/div&gt;&lt;div&gt;是否大于20时&lt;/div&gt;" style="rhombus;whiteSpace=wrap;html=1;sketch=1;curveFitting=1;jiggle=2;" parent="1" vertex="1">
          <mxGeometry x="1068" y="580" width="230" height="80" as="geometry" />
        </mxCell>
        <mxCell id="8H6UXR6yjuKnyTyYUlck-55" value="否" style="edgeStyle=orthogonalEdgeStyle;rounded=0;orthogonalLoop=1;jettySize=auto;html=1;exitX=0.5;exitY=1;exitDx=0;exitDy=0;entryX=0.5;entryY=0;entryDx=0;entryDy=0;sketch=1;curveFitting=1;jiggle=2;" parent="1" source="8H6UXR6yjuKnyTyYUlck-53" target="8H6UXR6yjuKnyTyYUlck-18" edge="1">
          <mxGeometry x="-0.877" relative="1" as="geometry">
            <Array as="points">
              <mxPoint x="695" y="460" />
              <mxPoint x="255" y="460" />
            </Array>
            <mxPoint as="offset" />
          </mxGeometry>
        </mxCell>
        <mxCell id="8H6UXR6yjuKnyTyYUlck-57" value="是" style="edgeStyle=orthogonalEdgeStyle;rounded=0;orthogonalLoop=1;jettySize=auto;html=1;exitX=1;exitY=0.5;exitDx=0;exitDy=0;entryX=0.5;entryY=0;entryDx=0;entryDy=0;sketch=1;curveFitting=1;jiggle=2;" parent="1" source="8H6UXR6yjuKnyTyYUlck-53" target="8H6UXR6yjuKnyTyYUlck-25" edge="1">
          <mxGeometry relative="1" as="geometry">
            <Array as="points">
              <mxPoint x="785" y="305" />
            </Array>
          </mxGeometry>
        </mxCell>
        <mxCell id="8H6UXR6yjuKnyTyYUlck-53" value="&lt;div&gt;MarkWork中epoch是否与&lt;/div&gt;&lt;div&gt;类epoch相等&lt;/div&gt;" style="rhombus;whiteSpace=wrap;html=1;sketch=1;curveFitting=1;jiggle=2;" parent="1" vertex="1">
          <mxGeometry x="610" y="265" width="170" height="80" as="geometry" />
        </mxCell>
        <mxCell id="6eZ106JahWfcC5_vLtNl-27" value="&lt;div&gt;BiasedLockingBulkRevokeThreshold = 40&lt;/div&gt;&lt;div&gt;大于40&lt;br&gt;&lt;/div&gt;" style="edgeStyle=orthogonalEdgeStyle;rounded=0;orthogonalLoop=1;jettySize=auto;html=1;exitX=1;exitY=0.5;exitDx=0;exitDy=0;entryX=0;entryY=0.5;entryDx=0;entryDy=0;sketch=1;curveFitting=1;jiggle=2;" parent="1" source="6eZ106JahWfcC5_vLtNl-14" target="8H6UXR6yjuKnyTyYUlck-33" edge="1">
          <mxGeometry x="-0.5789" relative="1" as="geometry">
            <Array as="points">
              <mxPoint x="1318" y="240" />
              <mxPoint x="1318" y="560" />
            </Array>
            <mxPoint as="offset" />
          </mxGeometry>
        </mxCell>
        <mxCell id="6eZ106JahWfcC5_vLtNl-29" style="edgeStyle=orthogonalEdgeStyle;rounded=0;orthogonalLoop=1;jettySize=auto;html=1;exitX=0;exitY=0.5;exitDx=0;exitDy=0;entryX=0.5;entryY=0;entryDx=0;entryDy=0;sketch=1;curveFitting=1;jiggle=2;" parent="1" source="6eZ106JahWfcC5_vLtNl-14" target="8H6UXR6yjuKnyTyYUlck-53" edge="1">
          <mxGeometry relative="1" as="geometry" />
        </mxCell>
        <mxCell id="6eZ106JahWfcC5_vLtNl-30" value="小于40" style="edgeLabel;html=1;align=center;verticalAlign=middle;resizable=0;points=[];" parent="6eZ106JahWfcC5_vLtNl-29" vertex="1" connectable="0">
          <mxGeometry x="-0.6931" relative="1" as="geometry">
            <mxPoint as="offset" />
          </mxGeometry>
        </mxCell>
        <mxCell id="6eZ106JahWfcC5_vLtNl-14" value="&lt;div&gt;Class类对象撤销计数器&lt;/div&gt;&lt;div&gt;是否大于40时&lt;/div&gt;" style="rhombus;whiteSpace=wrap;html=1;sketch=1;curveFitting=1;jiggle=2;" parent="1" vertex="1">
          <mxGeometry x="1068" y="200" width="230" height="80" as="geometry" />
        </mxCell>
        <mxCell id="6eZ106JahWfcC5_vLtNl-24" style="edgeStyle=orthogonalEdgeStyle;rounded=0;orthogonalLoop=1;jettySize=auto;html=1;exitX=0.5;exitY=0;exitDx=0;exitDy=0;entryX=0.5;entryY=1;entryDx=0;entryDy=0;sketch=1;curveFitting=1;jiggle=2;" parent="1" source="6eZ106JahWfcC5_vLtNl-20" target="6eZ106JahWfcC5_vLtNl-23" edge="1">
          <mxGeometry relative="1" as="geometry" />
        </mxCell>
        <mxCell id="6eZ106JahWfcC5_vLtNl-20" value="Class类对象的epoch值+1" style="rounded=1;whiteSpace=wrap;html=1;sketch=1;curveFitting=1;jiggle=2;" parent="1" vertex="1">
          <mxGeometry x="1118" y="440" width="130" height="60" as="geometry" />
        </mxCell>
        <mxCell id="6eZ106JahWfcC5_vLtNl-25" style="edgeStyle=orthogonalEdgeStyle;rounded=0;orthogonalLoop=1;jettySize=auto;html=1;exitX=0.5;exitY=0;exitDx=0;exitDy=0;entryX=0.5;entryY=1;entryDx=0;entryDy=0;sketch=1;curveFitting=1;jiggle=2;" parent="1" source="6eZ106JahWfcC5_vLtNl-23" target="6eZ106JahWfcC5_vLtNl-14" edge="1">
          <mxGeometry relative="1" as="geometry" />
        </mxCell>
        <mxCell id="6eZ106JahWfcC5_vLtNl-23" value="正处于临界区内的对象MarkWord中epoch值+1" style="rounded=1;whiteSpace=wrap;html=1;sketch=1;curveFitting=1;jiggle=2;" parent="1" vertex="1">
          <mxGeometry x="1118" y="320" width="130" height="60" as="geometry" />
        </mxCell>
        <mxCell id="6eZ106JahWfcC5_vLtNl-36" value="还在同步代码块内" style="edgeStyle=orthogonalEdgeStyle;rounded=0;orthogonalLoop=1;jettySize=auto;html=1;exitX=1;exitY=0.5;exitDx=0;exitDy=0;sketch=1;curveFitting=1;jiggle=2;entryX=0;entryY=0.5;entryDx=0;entryDy=0;" parent="1" source="6eZ106JahWfcC5_vLtNl-41" target="-JZo-2B2mDlL2h-WQSQG-1" edge="1">
          <mxGeometry x="-0.7363" relative="1" as="geometry">
            <mxPoint x="1882.5" y="704" as="sourcePoint" />
            <mxPoint x="1940" y="570" as="targetPoint" />
            <Array as="points">
              <mxPoint x="1790" y="560" />
              <mxPoint x="1790" y="225" />
            </Array>
            <mxPoint as="offset" />
          </mxGeometry>
        </mxCell>
        <mxCell id="6eZ106JahWfcC5_vLtNl-45" value="&lt;font style=&quot;font-size: 11px;&quot;&gt;未活动状态/已退出同步代码块&lt;br&gt;&lt;/font&gt;" style="edgeStyle=orthogonalEdgeStyle;rounded=0;sketch=1;hachureGap=4;jiggle=2;curveFitting=1;orthogonalLoop=1;jettySize=auto;html=1;exitX=0.5;exitY=0;exitDx=0;exitDy=0;entryX=0.5;entryY=1;entryDx=0;entryDy=0;fontFamily=Architects Daughter;fontSource=https%3A%2F%2Ffonts.googleapis.com%2Fcss%3Ffamily%3DArchitects%2BDaughter;fontSize=16;" parent="1" source="6eZ106JahWfcC5_vLtNl-41" target="6eZ106JahWfcC5_vLtNl-43" edge="1">
          <mxGeometry relative="1" as="geometry" />
        </mxCell>
        <mxCell id="6eZ106JahWfcC5_vLtNl-41" value="检查原持有偏向锁的线程" style="rhombus;whiteSpace=wrap;html=1;sketch=1;curveFitting=1;jiggle=2;" parent="1" vertex="1">
          <mxGeometry x="1490" y="520" width="230" height="80" as="geometry" />
        </mxCell>
        <mxCell id="-JZo-2B2mDlL2h-WQSQG-40" style="edgeStyle=orthogonalEdgeStyle;rounded=0;sketch=1;hachureGap=4;jiggle=2;curveFitting=1;orthogonalLoop=1;jettySize=auto;html=1;exitX=0.5;exitY=0;exitDx=0;exitDy=0;entryX=0.5;entryY=0;entryDx=0;entryDy=0;fontFamily=Architects Daughter;fontSource=https%3A%2F%2Ffonts.googleapis.com%2Fcss%3Ffamily%3DArchitects%2BDaughter;fontSize=16;" parent="1" source="6eZ106JahWfcC5_vLtNl-43" target="-JZo-2B2mDlL2h-WQSQG-21" edge="1">
          <mxGeometry relative="1" as="geometry" />
        </mxCell>
        <mxCell id="6eZ106JahWfcC5_vLtNl-43" value="&lt;div&gt;修改对象为无锁不可偏向状态&lt;/div&gt;&lt;div&gt;ThreadID | epoch | age | (是否偏向锁)0 | (标志位)01&lt;br&gt;&lt;/div&gt;&lt;div&gt;一旦进入该状态，理论上没法再获得偏向锁&lt;/div&gt;" style="rounded=1;whiteSpace=wrap;html=1;sketch=1;curveFitting=1;jiggle=2;" parent="1" vertex="1">
          <mxGeometry x="1457.5" y="390" width="295" height="60" as="geometry" />
        </mxCell>
        <mxCell id="-JZo-2B2mDlL2h-WQSQG-12" style="edgeStyle=orthogonalEdgeStyle;rounded=0;sketch=1;hachureGap=4;jiggle=2;curveFitting=1;orthogonalLoop=1;jettySize=auto;html=1;exitX=0.5;exitY=1;exitDx=0;exitDy=0;fontFamily=Architects Daughter;fontSource=https%3A%2F%2Ffonts.googleapis.com%2Fcss%3Ffamily%3DArchitects%2BDaughter;fontSize=16;" parent="1" source="-JZo-2B2mDlL2h-WQSQG-1" target="-JZo-2B2mDlL2h-WQSQG-11" edge="1">
          <mxGeometry relative="1" as="geometry" />
        </mxCell>
        <mxCell id="-JZo-2B2mDlL2h-WQSQG-1" value="&lt;div&gt;原持有偏向锁的线程的栈中&lt;/div&gt;&lt;div&gt;创建LockRecord&lt;/div&gt;" style="rounded=1;whiteSpace=wrap;html=1;sketch=1;curveFitting=1;jiggle=2;" parent="1" vertex="1">
          <mxGeometry x="1870" y="200" width="180" height="50" as="geometry" />
        </mxCell>
        <mxCell id="-JZo-2B2mDlL2h-WQSQG-14" style="edgeStyle=orthogonalEdgeStyle;rounded=0;sketch=1;hachureGap=4;jiggle=2;curveFitting=1;orthogonalLoop=1;jettySize=auto;html=1;exitX=0.5;exitY=1;exitDx=0;exitDy=0;fontFamily=Architects Daughter;fontSource=https%3A%2F%2Ffonts.googleapis.com%2Fcss%3Ffamily%3DArchitects%2BDaughter;fontSize=16;" parent="1" source="-JZo-2B2mDlL2h-WQSQG-11" target="-JZo-2B2mDlL2h-WQSQG-13" edge="1">
          <mxGeometry relative="1" as="geometry" />
        </mxCell>
        <mxCell id="-JZo-2B2mDlL2h-WQSQG-11" value="&lt;div&gt;拷贝对象的MarkWord写入&lt;br&gt;&lt;/div&gt;&lt;div&gt;原持有偏向锁的线程LockRecord&lt;/div&gt;&lt;div&gt;的_displaced_header&lt;/div&gt;" style="rounded=1;whiteSpace=wrap;html=1;sketch=1;curveFitting=1;jiggle=2;" parent="1" vertex="1">
          <mxGeometry x="1870" y="280" width="180" height="50" as="geometry" />
        </mxCell>
        <mxCell id="-JZo-2B2mDlL2h-WQSQG-16" style="edgeStyle=orthogonalEdgeStyle;rounded=0;sketch=1;hachureGap=4;jiggle=2;curveFitting=1;orthogonalLoop=1;jettySize=auto;html=1;exitX=0.5;exitY=1;exitDx=0;exitDy=0;fontFamily=Architects Daughter;fontSource=https%3A%2F%2Ffonts.googleapis.com%2Fcss%3Ffamily%3DArchitects%2BDaughter;fontSize=16;" parent="1" source="-JZo-2B2mDlL2h-WQSQG-13" target="-JZo-2B2mDlL2h-WQSQG-15" edge="1">
          <mxGeometry relative="1" as="geometry" />
        </mxCell>
        <mxCell id="-JZo-2B2mDlL2h-WQSQG-13" value="CAS 操作尝试将锁对象的 Mark Word 更新为指向&lt;strong&gt;锁记录&lt;/strong&gt;的指针" style="rounded=1;whiteSpace=wrap;html=1;sketch=1;curveFitting=1;jiggle=2;" parent="1" vertex="1">
          <mxGeometry x="1870" y="360" width="180" height="50" as="geometry" />
        </mxCell>
        <mxCell id="-JZo-2B2mDlL2h-WQSQG-18" style="edgeStyle=orthogonalEdgeStyle;rounded=0;sketch=1;hachureGap=4;jiggle=2;curveFitting=1;orthogonalLoop=1;jettySize=auto;html=1;exitX=0.5;exitY=1;exitDx=0;exitDy=0;entryX=0.5;entryY=0;entryDx=0;entryDy=0;fontFamily=Architects Daughter;fontSource=https%3A%2F%2Ffonts.googleapis.com%2Fcss%3Ffamily%3DArchitects%2BDaughter;fontSize=16;" parent="1" source="-JZo-2B2mDlL2h-WQSQG-15" target="-JZo-2B2mDlL2h-WQSQG-17" edge="1">
          <mxGeometry relative="1" as="geometry" />
        </mxCell>
        <mxCell id="-JZo-2B2mDlL2h-WQSQG-22" style="edgeStyle=orthogonalEdgeStyle;rounded=0;sketch=1;hachureGap=4;jiggle=2;curveFitting=1;orthogonalLoop=1;jettySize=auto;html=1;exitX=1;exitY=0.5;exitDx=0;exitDy=0;entryX=0;entryY=0.5;entryDx=0;entryDy=0;fontFamily=Architects Daughter;fontSource=https%3A%2F%2Ffonts.googleapis.com%2Fcss%3Ffamily%3DArchitects%2BDaughter;fontSize=16;" parent="1" source="-JZo-2B2mDlL2h-WQSQG-15" target="-JZo-2B2mDlL2h-WQSQG-21" edge="1">
          <mxGeometry relative="1" as="geometry">
            <Array as="points">
              <mxPoint x="2130" y="490" />
              <mxPoint x="2130" y="235" />
            </Array>
          </mxGeometry>
        </mxCell>
        <mxCell id="-JZo-2B2mDlL2h-WQSQG-15" value="&lt;div&gt;原持有偏向锁的线程获得轻量级锁&lt;/div&gt;&lt;div&gt;原持有偏向锁的线程的LockRecord内存地址 | (标志位)00&lt;br&gt;&lt;/div&gt;" style="rounded=1;whiteSpace=wrap;html=1;sketch=1;curveFitting=1;jiggle=2;" parent="1" vertex="1">
          <mxGeometry x="1805" y="460" width="310" height="60" as="geometry" />
        </mxCell>
        <mxCell id="-JZo-2B2mDlL2h-WQSQG-20" style="edgeStyle=orthogonalEdgeStyle;rounded=0;sketch=1;hachureGap=4;jiggle=2;curveFitting=1;orthogonalLoop=1;jettySize=auto;html=1;exitX=0.5;exitY=1;exitDx=0;exitDy=0;entryX=0.5;entryY=0;entryDx=0;entryDy=0;fontFamily=Architects Daughter;fontSource=https%3A%2F%2Ffonts.googleapis.com%2Fcss%3Ffamily%3DArchitects%2BDaughter;fontSize=16;" parent="1" source="-JZo-2B2mDlL2h-WQSQG-17" target="-JZo-2B2mDlL2h-WQSQG-19" edge="1">
          <mxGeometry relative="1" as="geometry" />
        </mxCell>
        <mxCell id="-JZo-2B2mDlL2h-WQSQG-17" value="&lt;div&gt;唤醒原持有偏向锁的线程&lt;/div&gt;" style="rounded=1;whiteSpace=wrap;html=1;sketch=1;curveFitting=1;jiggle=2;" parent="1" vertex="1">
          <mxGeometry x="1870" y="584" width="180" height="50" as="geometry" />
        </mxCell>
        <mxCell id="99Z_4zwu1_Mwd_49cmqG-7" style="edgeStyle=orthogonalEdgeStyle;rounded=0;orthogonalLoop=1;jettySize=auto;html=1;exitX=1;exitY=0.5;exitDx=0;exitDy=0;entryX=0;entryY=0.5;entryDx=0;entryDy=0;sketch=1;curveFitting=1;jiggle=2;" edge="1" parent="1" source="-JZo-2B2mDlL2h-WQSQG-19" target="-JZo-2B2mDlL2h-WQSQG-32">
          <mxGeometry relative="1" as="geometry" />
        </mxCell>
        <mxCell id="-JZo-2B2mDlL2h-WQSQG-19" value="从安全点继续执行" style="rounded=1;whiteSpace=wrap;html=1;sketch=1;curveFitting=1;jiggle=2;" parent="1" vertex="1">
          <mxGeometry x="1870" y="730" width="180" height="50" as="geometry" />
        </mxCell>
        <mxCell id="0Wx5KNQBChf4VUPkPu8S-11" style="edgeStyle=orthogonalEdgeStyle;rounded=0;orthogonalLoop=1;jettySize=auto;html=1;exitX=0.5;exitY=1;exitDx=0;exitDy=0;entryX=0.5;entryY=0;entryDx=0;entryDy=0;" parent="1" source="-JZo-2B2mDlL2h-WQSQG-21" target="-JZo-2B2mDlL2h-WQSQG-23" edge="1">
          <mxGeometry relative="1" as="geometry">
            <mxPoint x="2287" y="290" as="targetPoint" />
            <Array as="points">
              <mxPoint x="2287" y="290" />
              <mxPoint x="2287" y="290" />
            </Array>
          </mxGeometry>
        </mxCell>
        <mxCell id="-JZo-2B2mDlL2h-WQSQG-21" value="&lt;div&gt;当前线程的栈中&lt;/div&gt;&lt;div&gt;创建一个新的LockRecord&lt;/div&gt;" style="rounded=1;whiteSpace=wrap;html=1;sketch=1;curveFitting=1;jiggle=2;" parent="1" vertex="1">
          <mxGeometry x="2196.5" y="210" width="180" height="50" as="geometry" />
        </mxCell>
        <mxCell id="-JZo-2B2mDlL2h-WQSQG-28" style="edgeStyle=orthogonalEdgeStyle;rounded=0;sketch=1;hachureGap=4;jiggle=2;curveFitting=1;orthogonalLoop=1;jettySize=auto;html=1;exitX=0.5;exitY=1;exitDx=0;exitDy=0;entryX=0.5;entryY=0;entryDx=0;entryDy=0;fontFamily=Architects Daughter;fontSource=https%3A%2F%2Ffonts.googleapis.com%2Fcss%3Ffamily%3DArchitects%2BDaughter;fontSize=16;" parent="1" source="-JZo-2B2mDlL2h-WQSQG-23" target="-JZo-2B2mDlL2h-WQSQG-27" edge="1">
          <mxGeometry relative="1" as="geometry">
            <Array as="points">
              <mxPoint x="2287" y="380" />
              <mxPoint x="2287" y="380" />
            </Array>
          </mxGeometry>
        </mxCell>
        <mxCell id="-JZo-2B2mDlL2h-WQSQG-23" value="&lt;div&gt;拷贝对象的MarkWord写入&lt;br&gt;&lt;/div&gt;&lt;div&gt;当前线程LockRecord&lt;/div&gt;&lt;div&gt;的_displaced_header&lt;/div&gt;" style="rounded=1;whiteSpace=wrap;html=1;sketch=1;curveFitting=1;jiggle=2;" parent="1" vertex="1">
          <mxGeometry x="2196.5" y="300" width="180" height="50" as="geometry" />
        </mxCell>
        <mxCell id="-JZo-2B2mDlL2h-WQSQG-30" value="&lt;font style=&quot;font-size: 11px;&quot;&gt;成功&lt;br&gt;&lt;/font&gt;" style="edgeStyle=orthogonalEdgeStyle;rounded=0;sketch=1;hachureGap=4;jiggle=2;curveFitting=1;orthogonalLoop=1;jettySize=auto;html=1;exitX=0.5;exitY=1;exitDx=0;exitDy=0;entryX=0.5;entryY=0;entryDx=0;entryDy=0;fontFamily=Architects Daughter;fontSource=https%3A%2F%2Ffonts.googleapis.com%2Fcss%3Ffamily%3DArchitects%2BDaughter;fontSize=16;" parent="1" source="-JZo-2B2mDlL2h-WQSQG-27" target="-JZo-2B2mDlL2h-WQSQG-29" edge="1">
          <mxGeometry relative="1" as="geometry" />
        </mxCell>
        <mxCell id="-JZo-2B2mDlL2h-WQSQG-38" value="&lt;font style=&quot;font-size: 11px;&quot;&gt;失败&lt;br&gt;&lt;/font&gt;" style="edgeStyle=orthogonalEdgeStyle;rounded=0;sketch=1;hachureGap=4;jiggle=2;curveFitting=1;orthogonalLoop=1;jettySize=auto;html=1;exitX=1;exitY=0.5;exitDx=0;exitDy=0;entryX=0;entryY=0.5;entryDx=0;entryDy=0;fontFamily=Architects Daughter;fontSource=https%3A%2F%2Ffonts.googleapis.com%2Fcss%3Ffamily%3DArchitects%2BDaughter;fontSize=16;" parent="1" source="-JZo-2B2mDlL2h-WQSQG-27" target="-JZo-2B2mDlL2h-WQSQG-37" edge="1">
          <mxGeometry relative="1" as="geometry" />
        </mxCell>
        <mxCell id="-JZo-2B2mDlL2h-WQSQG-27" value="&lt;div&gt;CAS 操作尝试将锁对象的 Mark Word &lt;br&gt;&lt;/div&gt;&lt;div&gt;更新为指向&lt;strong&gt;锁记录&lt;/strong&gt;的指针&lt;/div&gt;" style="rhombus;whiteSpace=wrap;html=1;sketch=1;curveFitting=1;jiggle=2;" parent="1" vertex="1">
          <mxGeometry x="2171.5" y="394" width="230" height="80" as="geometry" />
        </mxCell>
        <mxCell id="99Z_4zwu1_Mwd_49cmqG-8" style="edgeStyle=orthogonalEdgeStyle;rounded=0;orthogonalLoop=1;jettySize=auto;html=1;exitX=1;exitY=0.5;exitDx=0;exitDy=0;entryX=0;entryY=0.5;entryDx=0;entryDy=0;sketch=1;curveFitting=1;jiggle=2;" edge="1" parent="1" source="-JZo-2B2mDlL2h-WQSQG-29" target="-JZo-2B2mDlL2h-WQSQG-31">
          <mxGeometry relative="1" as="geometry" />
        </mxCell>
        <mxCell id="-JZo-2B2mDlL2h-WQSQG-29" value="&lt;div&gt;当前线程获得轻量级锁&lt;/div&gt;&lt;div&gt;当前线程的LockRecord内存地址 | (标志位)00&lt;br&gt;&lt;/div&gt;" style="rounded=1;whiteSpace=wrap;html=1;sketch=1;curveFitting=1;jiggle=2;" parent="1" vertex="1">
          <mxGeometry x="2164" y="520" width="245" height="60" as="geometry" />
        </mxCell>
        <mxCell id="99Z_4zwu1_Mwd_49cmqG-9" style="edgeStyle=orthogonalEdgeStyle;rounded=0;orthogonalLoop=1;jettySize=auto;html=1;exitX=0.5;exitY=1;exitDx=0;exitDy=0;entryX=0.5;entryY=0;entryDx=0;entryDy=0;sketch=1;curveFitting=1;jiggle=2;" edge="1" parent="1" source="-JZo-2B2mDlL2h-WQSQG-31" target="0Wx5KNQBChf4VUPkPu8S-23">
          <mxGeometry relative="1" as="geometry" />
        </mxCell>
        <mxCell id="-JZo-2B2mDlL2h-WQSQG-31" value="LockRecord中_obj指向加锁对象" style="rounded=1;whiteSpace=wrap;html=1;sketch=1;curveFitting=1;jiggle=2;" parent="1" vertex="1">
          <mxGeometry x="2655" y="525" width="180" height="50" as="geometry" />
        </mxCell>
        <mxCell id="-JZo-2B2mDlL2h-WQSQG-32" value="开始轻量级解锁" style="rounded=1;whiteSpace=wrap;html=1;sketch=1;curveFitting=1;jiggle=2;" parent="1" vertex="1">
          <mxGeometry x="2655" y="730" width="180" height="50" as="geometry" />
        </mxCell>
        <mxCell id="-JZo-2B2mDlL2h-WQSQG-39" value="&lt;font style=&quot;font-size: 11px;&quot;&gt;再尝试&lt;br&gt;&lt;/font&gt;" style="edgeStyle=orthogonalEdgeStyle;rounded=0;sketch=1;hachureGap=4;jiggle=2;curveFitting=1;orthogonalLoop=1;jettySize=auto;html=1;exitX=0.5;exitY=0;exitDx=0;exitDy=0;entryX=0.5;entryY=0;entryDx=0;entryDy=0;fontFamily=Architects Daughter;fontSource=https%3A%2F%2Ffonts.googleapis.com%2Fcss%3Ffamily%3DArchitects%2BDaughter;fontSize=16;" parent="1" source="-JZo-2B2mDlL2h-WQSQG-37" target="-JZo-2B2mDlL2h-WQSQG-27" edge="1">
          <mxGeometry x="-0.3817" relative="1" as="geometry">
            <Array as="points">
              <mxPoint x="2535" y="370" />
              <mxPoint x="2287" y="370" />
            </Array>
            <mxPoint as="offset" />
          </mxGeometry>
        </mxCell>
        <mxCell id="0Wx5KNQBChf4VUPkPu8S-40" value="&lt;font style=&quot;font-size: 11px;&quot;&gt;失败到一定次数&lt;/font&gt;" style="edgeStyle=orthogonalEdgeStyle;rounded=0;orthogonalLoop=1;jettySize=auto;html=1;exitX=1;exitY=0.5;exitDx=0;exitDy=0;entryX=0;entryY=0.5;entryDx=0;entryDy=0;sketch=1;curveFitting=1;jiggle=2;" parent="1" source="-JZo-2B2mDlL2h-WQSQG-37" target="-JZo-2B2mDlL2h-WQSQG-41" edge="1">
          <mxGeometry x="-0.6655" relative="1" as="geometry">
            <Array as="points">
              <mxPoint x="2630" y="434" />
              <mxPoint x="2630" y="185" />
            </Array>
            <mxPoint as="offset" />
          </mxGeometry>
        </mxCell>
        <mxCell id="-JZo-2B2mDlL2h-WQSQG-37" value="&lt;div&gt;&lt;font style=&quot;font-size: 11px;&quot;&gt;自旋/适应自旋&lt;/font&gt;&lt;/div&gt;" style="ellipse;whiteSpace=wrap;html=1;aspect=fixed;sketch=1;hachureGap=4;jiggle=2;curveFitting=1;fontFamily=Architects Daughter;fontSource=https%3A%2F%2Ffonts.googleapis.com%2Fcss%3Ffamily%3DArchitects%2BDaughter;fontSize=20;" parent="1" vertex="1">
          <mxGeometry x="2490" y="390" width="90" height="90" as="geometry" />
        </mxCell>
        <mxCell id="-JZo-2B2mDlL2h-WQSQG-44" style="edgeStyle=orthogonalEdgeStyle;rounded=0;sketch=1;hachureGap=4;jiggle=2;curveFitting=1;orthogonalLoop=1;jettySize=auto;html=1;exitX=0.5;exitY=1;exitDx=0;exitDy=0;fontFamily=Architects Daughter;fontSource=https%3A%2F%2Ffonts.googleapis.com%2Fcss%3Ffamily%3DArchitects%2BDaughter;fontSize=16;" parent="1" source="-JZo-2B2mDlL2h-WQSQG-41" target="-JZo-2B2mDlL2h-WQSQG-43" edge="1">
          <mxGeometry relative="1" as="geometry" />
        </mxCell>
        <mxCell id="-JZo-2B2mDlL2h-WQSQG-41" value="升级为重量级锁" style="rounded=1;whiteSpace=wrap;html=1;sketch=1;curveFitting=1;jiggle=2;" parent="1" vertex="1">
          <mxGeometry x="2842.5" y="160" width="180" height="50" as="geometry" />
        </mxCell>
        <mxCell id="0Wx5KNQBChf4VUPkPu8S-39" style="edgeStyle=orthogonalEdgeStyle;rounded=0;orthogonalLoop=1;jettySize=auto;html=1;exitX=1;exitY=0.5;exitDx=0;exitDy=0;entryX=0.5;entryY=1;entryDx=0;entryDy=0;sketch=1;curveFitting=1;jiggle=2;" parent="1" source="-JZo-2B2mDlL2h-WQSQG-43" target="0Wx5KNQBChf4VUPkPu8S-31" edge="1">
          <mxGeometry relative="1" as="geometry" />
        </mxCell>
        <mxCell id="-JZo-2B2mDlL2h-WQSQG-43" value="&lt;div&gt;升级为重量级锁&lt;/div&gt;&lt;div&gt;指向系统互斥量的指针 | (标志位)10&lt;br&gt;&lt;/div&gt;" style="rounded=1;whiteSpace=wrap;html=1;sketch=1;curveFitting=1;jiggle=2;" parent="1" vertex="1">
          <mxGeometry x="2810" y="267.5" width="245" height="60" as="geometry" />
        </mxCell>
        <mxCell id="0Wx5KNQBChf4VUPkPu8S-5" value="&lt;div style=&quot;font-size: 11px;&quot;&gt;&lt;font style=&quot;font-size: 11px;&quot;&gt;只要有第二个线程过来竞争时&lt;/font&gt;&lt;/div&gt;&lt;div style=&quot;font-size: 11px;&quot;&gt;&lt;font style=&quot;font-size: 11px;&quot;&gt;就会破坏当前对象的偏向状态&lt;/font&gt;&lt;/div&gt;&lt;div style=&quot;font-size: 11px;&quot;&gt;&lt;font style=&quot;font-size: 11px;&quot;&gt;撤销对象的偏向锁转为&lt;/font&gt;&lt;/div&gt;&lt;div style=&quot;font-size: 11px;&quot;&gt;&lt;font style=&quot;font-size: 11px;&quot;&gt;无锁不可偏向状态&lt;/font&gt;&lt;/div&gt;" style="text;html=1;strokeColor=#d6b656;fillColor=#fff2cc;align=center;verticalAlign=middle;whiteSpace=wrap;rounded=0;" parent="1" vertex="1">
          <mxGeometry x="355" y="160" width="165" height="60" as="geometry" />
        </mxCell>
        <mxCell id="99Z_4zwu1_Mwd_49cmqG-10" style="edgeStyle=orthogonalEdgeStyle;rounded=0;orthogonalLoop=1;jettySize=auto;html=1;exitX=0.5;exitY=1;exitDx=0;exitDy=0;entryX=0.5;entryY=0;entryDx=0;entryDy=0;sketch=1;curveFitting=1;jiggle=2;" edge="1" parent="1" source="0Wx5KNQBChf4VUPkPu8S-23" target="-JZo-2B2mDlL2h-WQSQG-32">
          <mxGeometry relative="1" as="geometry" />
        </mxCell>
        <mxCell id="0Wx5KNQBChf4VUPkPu8S-23" value="执行同步代码块" style="rounded=1;whiteSpace=wrap;html=1;sketch=1;curveFitting=1;jiggle=2;" parent="1" vertex="1">
          <mxGeometry x="2655" y="627" width="180" height="50" as="geometry" />
        </mxCell>
        <mxCell id="0Wx5KNQBChf4VUPkPu8S-31" value="&lt;div&gt;mutex&lt;/div&gt;&lt;div&gt;挂起当前线程&lt;br&gt;&lt;/div&gt;" style="shape=hexagon;perimeter=hexagonPerimeter2;whiteSpace=wrap;html=1;fixedSize=1;sketch=1;curveFitting=1;jiggle=2;" parent="1" vertex="1">
          <mxGeometry x="3185" y="122.5" width="120" height="80" as="geometry" />
        </mxCell>
        <mxCell id="0Wx5KNQBChf4VUPkPu8S-52" value="否" style="edgeStyle=orthogonalEdgeStyle;rounded=0;orthogonalLoop=1;jettySize=auto;html=1;exitX=1;exitY=0.5;exitDx=0;exitDy=0;entryX=0;entryY=0.5;entryDx=0;entryDy=0;sketch=1;curveFitting=1;jiggle=2;" parent="1" source="0Wx5KNQBChf4VUPkPu8S-45" target="0Wx5KNQBChf4VUPkPu8S-49" edge="1">
          <mxGeometry relative="1" as="geometry" />
        </mxCell>
        <mxCell id="99Z_4zwu1_Mwd_49cmqG-13" style="edgeStyle=orthogonalEdgeStyle;rounded=0;orthogonalLoop=1;jettySize=auto;html=1;exitX=0.5;exitY=1;exitDx=0;exitDy=0;entryX=0;entryY=0.5;entryDx=0;entryDy=0;sketch=1;curveFitting=1;jiggle=2;" edge="1" parent="1" source="0Wx5KNQBChf4VUPkPu8S-45" target="99Z_4zwu1_Mwd_49cmqG-12">
          <mxGeometry relative="1" as="geometry" />
        </mxCell>
        <mxCell id="99Z_4zwu1_Mwd_49cmqG-14" value="是" style="edgeLabel;html=1;align=center;verticalAlign=middle;resizable=0;points=[];" vertex="1" connectable="0" parent="99Z_4zwu1_Mwd_49cmqG-13">
          <mxGeometry x="-0.9077" y="-4" relative="1" as="geometry">
            <mxPoint as="offset" />
          </mxGeometry>
        </mxCell>
        <mxCell id="0Wx5KNQBChf4VUPkPu8S-45" value="是否是当前线程获取的锁" style="rhombus;whiteSpace=wrap;html=1;sketch=1;curveFitting=1;jiggle=2;" parent="1" vertex="1">
          <mxGeometry x="770" y="-194.5" width="205" height="59" as="geometry" />
        </mxCell>
        <mxCell id="99Z_4zwu1_Mwd_49cmqG-1" style="edgeStyle=orthogonalEdgeStyle;rounded=0;orthogonalLoop=1;jettySize=auto;html=1;exitX=0.5;exitY=0;exitDx=0;exitDy=0;entryX=1;entryY=0;entryDx=0;entryDy=0;sketch=1;curveFitting=1;jiggle=2;" edge="1" parent="1" source="0Wx5KNQBChf4VUPkPu8S-49" target="8H6UXR6yjuKnyTyYUlck-2">
          <mxGeometry relative="1" as="geometry" />
        </mxCell>
        <mxCell id="99Z_4zwu1_Mwd_49cmqG-2" value="再尝试" style="edgeLabel;html=1;align=center;verticalAlign=middle;resizable=0;points=[];" vertex="1" connectable="0" parent="99Z_4zwu1_Mwd_49cmqG-1">
          <mxGeometry x="-0.0673" y="1" relative="1" as="geometry">
            <mxPoint x="445" as="offset" />
          </mxGeometry>
        </mxCell>
        <mxCell id="99Z_4zwu1_Mwd_49cmqG-3" style="edgeStyle=orthogonalEdgeStyle;rounded=0;orthogonalLoop=1;jettySize=auto;html=1;exitX=1;exitY=0.5;exitDx=0;exitDy=0;entryX=0.5;entryY=0;entryDx=0;entryDy=0;sketch=1;curveFitting=1;jiggle=2;" edge="1" parent="1" source="0Wx5KNQBChf4VUPkPu8S-49" target="-JZo-2B2mDlL2h-WQSQG-41">
          <mxGeometry relative="1" as="geometry" />
        </mxCell>
        <mxCell id="99Z_4zwu1_Mwd_49cmqG-4" value="失败到一定次数" style="edgeLabel;html=1;align=center;verticalAlign=middle;resizable=0;points=[];" vertex="1" connectable="0" parent="99Z_4zwu1_Mwd_49cmqG-3">
          <mxGeometry x="-0.8555" y="1" relative="1" as="geometry">
            <mxPoint as="offset" />
          </mxGeometry>
        </mxCell>
        <mxCell id="0Wx5KNQBChf4VUPkPu8S-49" value="&lt;div&gt;&lt;font style=&quot;font-size: 11px;&quot;&gt;自旋/适应自旋&lt;/font&gt;&lt;/div&gt;" style="ellipse;whiteSpace=wrap;html=1;aspect=fixed;sketch=1;hachureGap=4;jiggle=2;curveFitting=1;fontFamily=Architects Daughter;fontSource=https%3A%2F%2Ffonts.googleapis.com%2Fcss%3Ffamily%3DArchitects%2BDaughter;fontSize=20;" parent="1" vertex="1">
          <mxGeometry x="1158" y="-210" width="90" height="90" as="geometry" />
        </mxCell>
        <mxCell id="0Wx5KNQBChf4VUPkPu8S-51" style="edgeStyle=orthogonalEdgeStyle;rounded=0;orthogonalLoop=1;jettySize=auto;html=1;exitX=1;exitY=0.5;exitDx=0;exitDy=0;entryX=0;entryY=0.5;entryDx=0;entryDy=0;sketch=1;curveFitting=1;jiggle=2;" parent="1" source="0Wx5KNQBChf4VUPkPu8S-50" target="0Wx5KNQBChf4VUPkPu8S-45" edge="1">
          <mxGeometry relative="1" as="geometry" />
        </mxCell>
        <mxCell id="0Wx5KNQBChf4VUPkPu8S-50" value="&lt;div&gt;当前线程的栈中&lt;/div&gt;&lt;div&gt;创建一个新的LockRecord&lt;/div&gt;&lt;div&gt;（未获取到锁只会生成一个）&lt;br&gt;&lt;/div&gt;" style="rounded=1;whiteSpace=wrap;html=1;sketch=1;curveFitting=1;jiggle=2;" parent="1" vertex="1">
          <mxGeometry x="490" y="-190" width="180" height="50" as="geometry" />
        </mxCell>
        <mxCell id="99Z_4zwu1_Mwd_49cmqG-15" style="edgeStyle=orthogonalEdgeStyle;rounded=0;orthogonalLoop=1;jettySize=auto;html=1;exitX=1;exitY=0.5;exitDx=0;exitDy=0;entryX=0.5;entryY=0;entryDx=0;entryDy=0;sketch=1;curveFitting=1;jiggle=2;" edge="1" parent="1" source="99Z_4zwu1_Mwd_49cmqG-12" target="-JZo-2B2mDlL2h-WQSQG-31">
          <mxGeometry relative="1" as="geometry" />
        </mxCell>
        <mxCell id="99Z_4zwu1_Mwd_49cmqG-12" value="当前线程LockRecord&lt;div&gt;的_displaced_header&lt;/div&gt;&lt;div&gt;设置为null&lt;br&gt;&lt;/div&gt;" style="rounded=1;whiteSpace=wrap;html=1;sketch=1;curveFitting=1;jiggle=2;" vertex="1" parent="1">
          <mxGeometry x="1620" y="-30" width="180" height="50" as="geometry" />
        </mxCell>
      </root>
    </mxGraphModel>
  </diagram>
</mxfile>
